<svg width="56" height="56" viewBox="0 0 56 56" fill="none" xmlns="http://www.w3.org/2000/svg">
<path d="M28 56C43.464 56 56 43.464 56 28C56 12.536 43.464 0 28 0C12.536 0 0 12.536 0 28C0 43.464 12.536 56 28 56Z" fill="#00C169"/>
<path fill-rule="evenodd" clip-rule="evenodd" d="M37.5522 32.1737C37.0823 31.9165 34.7715 30.6696 34.3392 30.4937C33.907 30.317 33.5893 30.226 33.2516 30.6932C32.9156 31.1587 31.9557 32.2035 31.667 32.5124C31.3747 32.8221 31.0947 32.851 30.6231 32.5929C30.155 32.3356 28.6298 31.7712 26.8623 30.072C25.486 28.7499 24.5838 27.146 24.3231 26.6569C24.0597 26.1669 24.3213 25.9175 24.5698 25.6882C24.7938 25.4809 25.0703 25.1457 25.3206 24.8754C25.5691 24.6059 25.6566 24.4081 25.8281 24.0949C25.9996 23.7816 25.9305 23.499 25.8193 23.2549C25.7091 23.0107 24.8393 20.6185 24.4771 19.6455C24.114 18.6725 23.7088 18.8169 23.4297 18.8055C23.1497 18.7959 22.833 18.7442 22.5136 18.7311C22.1933 18.7197 21.6701 18.8204 21.2142 19.2824C20.7566 19.7444 19.4756 20.8565 19.3881 23.2137C19.2997 25.5692 20.9298 27.9107 21.1573 28.238C21.3848 28.567 24.2697 33.6744 29.0647 35.7744C33.8623 37.8744 33.8877 37.2347 34.7671 37.1875C35.6482 37.1402 37.6432 36.134 38.0851 35.0315C38.5261 33.929 38.562 32.97 38.45 32.7661C38.3371 32.5631 38.0221 32.431 37.5522 32.1737ZM28.7558 43.5286C25.5857 43.5286 22.6308 42.5766 20.166 40.9456L14.1643 42.8671L16.1147 37.0676C14.2448 34.4934 13.1415 31.3302 13.1415 27.9116C13.1415 19.299 20.1467 12.2946 28.7558 12.2946C37.3676 12.2946 44.3728 19.2999 44.3728 27.9116C44.3728 36.5216 37.3676 43.5286 28.7558 43.5286ZM28.7558 9.1525C18.3967 9.1525 9.99759 17.5507 9.99759 27.9116C9.99759 31.4562 10.982 34.7699 12.69 37.5987L9.30371 47.6621L19.6891 44.338C22.3771 45.8237 25.4676 46.6716 28.7558 46.6716C39.1185 46.6716 47.5167 38.2725 47.5167 27.9125C47.5167 17.5507 39.1185 9.1525 28.7558 9.1525Z" fill="white"/>
</svg>
