<svg width="2358" height="1066" viewBox="0 0 2358 1066" fill="none" xmlns="http://www.w3.org/2000/svg">
<path d="M529.545 586.828L611.333 802.139H741.64L637.672 527.019L589.153 399.662L537.862 263.861L467.857 78.8066L443.598 14.0726H298.042L244.672 155.502L182.291 320.152L125.455 470.729L0 802.139H130.307L223.878 555.868L269.624 434.14L359.037 197.72L370.82 166.76L386.069 207.571L402.704 251.196L484.492 467.914L529.545 586.828Z" fill="white"/>
<path d="M1118.01 802.139L998.789 800.732C960.667 800.732 932.249 788.066 912.842 763.439C893.434 738.812 883.73 703.631 883.73 657.895V14.7762H1014.04V638.193C1014.04 656.487 1017.5 668.449 1025.13 674.078C1032.75 679.707 1045.23 682.522 1064.64 682.522L1118.7 683.929V802.842L1118.01 802.139Z" fill="white"/>
<path d="M1226.83 101.323H1356.44V269.49H1460.41V378.553H1356.44V638.193C1356.44 656.487 1359.91 668.449 1367.53 674.078C1375.15 679.707 1388.32 682.522 1407.04 682.522L1460.41 683.929V802.842L1341.19 801.435C1303.07 801.435 1274.65 788.77 1255.24 764.143C1235.84 739.516 1226.13 704.334 1226.13 658.598V101.323H1226.83Z" fill="white"/>
<path d="M1565.07 86.5466C1565.07 62.6231 1573.39 42.2178 1590.71 25.3307C1607.35 8.44357 1628.14 0 1651.02 0C1672.5 0 1691.91 8.44357 1708.55 26.0343C1725.18 43.6251 1733.5 64.0304 1733.5 86.5466C1733.5 109.063 1725.18 128.764 1708.55 146.355C1691.91 163.946 1673.2 173.093 1651.02 173.093C1628.14 173.093 1608.04 163.946 1590.71 146.355C1573.39 128.764 1565.07 108.359 1565.07 86.5466ZM1582.4 269.49H1711.32V802.139H1582.4V269.49Z" fill="white"/>
<path d="M2358 520.687V802.139H2232.54V527.019C2232.54 474.247 2220.76 434.14 2197.2 407.402C2173.63 380.664 2141.75 367.295 2101.54 367.295C2061.34 367.295 2030.15 380.664 2003.12 407.402C1976.78 434.14 1961.53 471.432 1959.45 517.872V801.435H1833.31V269.49H1958.07V334.928C1978.17 308.19 2002.43 287.785 2030.85 273.009C2059.26 258.232 2089.07 251.196 2120.95 251.196C2189.57 252.603 2245.71 273.712 2290.77 314.523C2335.82 356.037 2358 424.289 2358 519.983V520.687Z" fill="white"/>
<path d="M762.434 379.257C716.688 531.241 577.37 641.711 412.407 641.711C365.275 641.711 320.222 632.564 278.635 616.381L323.688 497.467C350.719 508.725 381.217 514.354 412.407 514.354C522.614 514.354 615.492 439.066 643.91 336.336L762.434 379.257Z" fill="#E74625"/>
<path d="M1350.2 1045.59H1422.98C1422.98 1045.59 1427.14 1047 1427.14 1049.82V1060.37C1427.14 1060.37 1425.75 1063.19 1423.67 1063.19H1334.95C1334.95 1063.19 1331.49 1061.78 1331.49 1060.37V937.236C1331.49 937.236 1332.18 933.718 1334.95 933.718H1422.29C1422.29 933.718 1425.75 935.125 1425.75 936.532V947.79C1425.75 947.79 1424.36 951.308 1422.29 951.308H1350.2V1044.89V1045.59Z" fill="white"/>
<path d="M1580.32 1063.89H1565.07C1565.07 1063.89 1562.3 1063.19 1561.6 1061.07L1529.72 1010.41L1497.84 1061.07C1497.84 1061.07 1495.06 1063.89 1494.37 1063.89H1478.43C1478.43 1063.89 1474.96 1061.78 1476.35 1059.67L1517.94 996.341L1479.81 937.939C1479.81 937.939 1479.81 933.718 1481.2 933.718H1497.14C1497.14 933.718 1499.91 934.421 1500.61 936.532L1529.03 982.268L1557.44 936.532C1557.44 936.532 1560.22 933.718 1561.6 933.718H1577.54C1577.54 933.718 1580.32 935.125 1578.93 937.939L1541.5 996.341L1582.4 1059.67C1582.4 1059.67 1582.4 1063.89 1580.32 1063.89Z" fill="white"/>
<path d="M1731.42 985.083C1731.42 1014.64 1707.85 1035.04 1675.97 1035.04H1657.25V1060.37C1657.25 1060.37 1655.87 1063.89 1653.79 1063.89H1641.31C1641.31 1063.89 1637.85 1062.48 1637.85 1060.37V937.236C1637.85 937.236 1639.23 934.421 1641.31 934.421H1675.27C1707.16 934.421 1730.72 955.53 1730.72 985.083H1731.42ZM1713.4 985.083C1713.4 965.381 1697.45 951.308 1675.27 951.308H1657.95V1018.86H1675.27C1697.45 1018.86 1713.4 1005.49 1713.4 985.083Z" fill="white"/>
<path d="M1847.86 932.31C1884.6 932.31 1913.71 961.863 1913.71 999.155C1913.71 1036.45 1884.6 1065.3 1847.86 1065.3C1811.13 1065.3 1782.02 1036.45 1782.02 999.155C1782.02 961.863 1811.13 932.31 1847.86 932.31ZM1847.86 1047C1874.2 1047 1894.99 1025.89 1894.99 999.155C1894.99 972.417 1874.2 951.308 1847.86 951.308C1821.52 951.308 1800.73 972.417 1800.73 999.155C1800.73 1025.89 1821.52 1047 1847.86 1047Z" fill="white"/>
<path d="M2067.58 1060.37C2067.58 1060.37 2067.58 1063.89 2065.5 1063.89H2051.64C2051.64 1063.89 2048.87 1062.48 2048.17 1061.07L2033.62 1030.82C2030.15 1030.82 2025.99 1032.23 2021.84 1032.23H1992.03V1060.37C1992.03 1060.37 1990.65 1063.89 1988.57 1063.89H1976.09C1976.09 1063.89 1972.62 1062.48 1972.62 1060.37V937.236C1972.62 937.236 1974.01 934.421 1976.09 934.421H2021.14C2050.25 934.421 2071.74 954.826 2071.74 983.675C2071.74 1001.27 2063.42 1016.04 2049.56 1024.49L2066.89 1059.67L2067.58 1060.37ZM2053.72 983.675C2053.72 964.677 2039.16 951.308 2020.45 951.308H1992.03V1016.75H2020.45C2039.86 1016.75 2053.72 1003.38 2053.72 983.675Z" fill="white"/>
<path d="M2123.03 937.236C2123.03 937.236 2124.42 934.421 2125.8 934.421H2212.44C2212.44 934.421 2215.22 935.828 2215.22 937.236V947.086C2215.22 947.086 2213.83 950.605 2212.44 950.605H2178.48V1060.37C2178.48 1060.37 2177.09 1063.89 2175.71 1063.89H2163.23C2163.23 1063.89 2159.77 1062.48 2159.77 1060.37V950.605H2125.8C2125.8 950.605 2123.03 949.197 2123.03 947.086V936.532V937.236Z" fill="white"/>
<path d="M2265.12 1044.19C2265.12 1044.19 2263.74 1040.67 2265.12 1039.26L2273.44 1030.82C2273.44 1030.82 2276.21 1030.11 2278.29 1031.52C2285.92 1040.67 2299.08 1047.71 2310.17 1047.71C2326.81 1047.71 2336.51 1039.97 2336.51 1028C2336.51 1016.75 2324.73 1011.82 2307.4 1005.49C2284.53 997.748 2269.28 988.601 2269.28 968.195C2269.28 947.79 2285.22 933.014 2310.87 933.014C2325.42 933.014 2339.29 938.643 2346.22 947.79C2347.6 949.197 2347.6 951.308 2346.22 953.419L2339.29 961.159C2339.29 961.159 2335.13 962.566 2333.05 961.159C2327.5 954.826 2317.8 951.308 2309.48 951.308C2294.93 951.308 2286.61 958.345 2286.61 968.195C2286.61 979.453 2299.78 985.082 2315.72 990.712C2335.82 997.748 2355.23 1006.19 2355.23 1028C2355.23 1051.22 2337.21 1066 2310.17 1066C2291.46 1066 2272.75 1056.85 2263.74 1044.19H2265.12Z" fill="white"/>
<path d="M1409.12 991.415H2.77249C1.24128 991.415 0 992.675 0 994.23V1006.19C0 1007.75 1.24128 1009.01 2.77249 1009.01H1409.12C1410.65 1009.01 1411.89 1007.75 1411.89 1006.19V994.23C1411.89 992.675 1410.65 991.415 1409.12 991.415Z" fill="#E74625"/>
</svg>
