<svg width="115" height="52" viewBox="0 0 115 52" fill="none" xmlns="http://www.w3.org/2000/svg">
<path d="M25.826 28.6257L29.8148 39.1287H36.1699L31.0994 25.7083L28.7331 19.4957L26.2316 12.8713L22.8175 3.84422L21.6343 0.686462H14.5356L11.9327 7.58547L8.89036 15.6172L6.11846 22.9624L0 39.1287H6.35508L10.9186 27.1155L13.1496 21.1776L17.5103 9.64488L18.0849 8.13465L18.8286 10.1254L19.6399 12.2535L23.6287 22.8251L25.826 28.6257Z" fill="black"/>
<path d="M54.5253 39.1287L48.7111 39.0601C46.8519 39.0601 45.4659 38.4422 44.5194 37.2409C43.5729 36.0396 43.0997 34.3234 43.0997 32.0924V0.720764H49.4548V31.1313C49.4548 32.0237 49.6238 32.6072 49.9956 32.8818C50.3675 33.1564 50.9759 33.2937 51.9224 33.2937L54.5591 33.3624V39.163L54.5253 39.1287Z" fill="black"/>
<path d="M59.8324 4.94257H66.1537V13.1459H71.2243V18.466H66.1537V31.1314C66.1537 32.0238 66.3227 32.6073 66.6946 32.8818C67.0664 33.1564 67.7087 33.2937 68.6214 33.2937L71.2243 33.3624V39.163L65.41 39.0944C63.5508 39.0944 62.1649 38.4766 61.2184 37.2752C60.2719 36.0739 59.7986 34.3578 59.7986 32.1267V4.94257H59.8324Z" fill="black"/>
<path d="M76.3287 4.22178C76.3287 3.05479 76.7343 2.05941 77.5794 1.23564C78.3907 0.411881 79.4048 0 80.5203 0C81.5682 0 82.5147 0.411881 83.326 1.26997C84.1373 2.12805 84.543 3.12343 84.543 4.22178C84.543 5.32013 84.1373 6.28119 83.326 7.13928C82.5147 7.99736 81.602 8.44357 80.5203 8.44357C79.4048 8.44357 78.4245 7.99736 77.5794 7.13928C76.7343 6.28119 76.3287 5.28581 76.3287 4.22178ZM77.1738 13.1459H83.4612V39.1287H77.1738V13.1459Z" fill="black"/>
<path d="M115 25.3994V39.1287H108.882V25.7083C108.882 23.134 108.307 21.1776 107.158 19.8733C106.008 18.569 104.453 17.9168 102.493 17.9168C100.532 17.9168 99.0109 18.569 97.6925 19.8733C96.408 21.1776 95.6643 22.9967 95.5629 25.2621V39.0944H89.4106V13.1459H95.4953V16.338C96.4756 15.0337 97.6587 14.0383 99.0447 13.3175C100.431 12.5967 101.884 12.2535 103.439 12.2535C106.786 12.3221 109.524 13.3518 111.721 15.3426C113.918 17.3677 115 20.697 115 25.365V25.3994Z" fill="black"/>
<path d="M37.184 18.5003C34.953 25.9142 28.1584 31.303 20.1132 31.303C17.8145 31.303 15.6173 30.8568 13.5891 30.0673L15.7863 24.2667C17.1046 24.8159 18.592 25.0904 20.1132 25.0904C25.4879 25.0904 30.0176 21.4178 31.4036 16.4066L37.184 18.5003Z" fill="#E74625"/>
<path d="M65.8495 51.0046H69.3989C69.3989 51.0046 69.6017 51.0733 69.6017 51.2105V51.7254C69.6017 51.7254 69.5341 51.8627 69.4327 51.8627H65.1058C65.1058 51.8627 64.9368 51.794 64.9368 51.7254V45.7188C64.9368 45.7188 64.9706 45.5472 65.1058 45.5472H69.365C69.365 45.5472 69.5341 45.6158 69.5341 45.6845V46.2336C69.5341 46.2336 69.4665 46.4053 69.365 46.4053H65.8495V50.9703V51.0046Z" fill="black"/>
<path d="M77.0723 51.897H76.3286C76.3286 51.897 76.1934 51.8627 76.1596 51.7597L74.6046 49.2884L73.0497 51.7597C73.0497 51.7597 72.9144 51.897 72.8806 51.897H72.1032C72.1032 51.897 71.9341 51.794 72.0017 51.6911L74.03 48.602L72.1708 45.7531C72.1708 45.7531 72.1708 45.5472 72.2384 45.5472H73.0159C73.0159 45.5472 73.1511 45.5815 73.1849 45.6845L74.5708 47.9155L75.9568 45.6845C75.9568 45.6845 76.092 45.5472 76.1596 45.5472H76.9371C76.9371 45.5472 77.0723 45.6158 77.0047 45.7531L75.1793 48.602L77.1737 51.6911C77.1737 51.6911 77.1737 51.897 77.0723 51.897Z" fill="black"/>
<path d="M84.4415 48.0528C84.4415 49.4944 83.2922 50.4897 81.7372 50.4897H80.8245V51.7254C80.8245 51.7254 80.7569 51.897 80.6555 51.897H80.047C80.047 51.897 79.878 51.8283 79.878 51.7254V45.7188C79.878 45.7188 79.9456 45.5815 80.047 45.5815H81.7034C83.2584 45.5815 84.4077 46.6112 84.4077 48.0528H84.4415ZM83.5626 48.0528C83.5626 47.0917 82.7851 46.4052 81.7034 46.4052H80.8583V49.7003H81.7034C82.7851 49.7003 83.5626 49.0482 83.5626 48.0528Z" fill="black"/>
<path d="M90.1205 45.4785C91.9121 45.4785 93.3318 46.9201 93.3318 48.7392C93.3318 50.5584 91.9121 51.9656 90.1205 51.9656C88.3289 51.9656 86.9091 50.5584 86.9091 48.7392C86.9091 46.9201 88.3289 45.4785 90.1205 45.4785ZM90.1205 51.0732C91.405 51.0732 92.4191 50.0435 92.4191 48.7392C92.4191 47.435 91.405 46.4053 90.1205 46.4053C88.8359 46.4053 87.8218 47.435 87.8218 48.7392C87.8218 50.0435 88.8359 51.0732 90.1205 51.0732Z" fill="black"/>
<path d="M100.836 51.7254C100.836 51.7254 100.836 51.897 100.735 51.897H100.059C100.059 51.897 99.9235 51.8283 99.8897 51.7597L99.1799 50.2838C99.0108 50.2838 98.808 50.3524 98.6052 50.3524H97.1516V51.7254C97.1516 51.7254 97.084 51.897 96.9826 51.897H96.3742C96.3742 51.897 96.2051 51.8283 96.2051 51.7254V45.7188C96.2051 45.7188 96.2728 45.5815 96.3742 45.5815H98.5714C99.9912 45.5815 101.039 46.5769 101.039 47.9841C101.039 48.8422 100.633 49.563 99.9573 49.9749L100.802 51.6911L100.836 51.7254ZM100.16 47.9841C100.16 47.0574 99.4503 46.4052 98.5376 46.4052H97.1516V49.5973H98.5376C99.4841 49.5973 100.16 48.9452 100.16 47.9841Z" fill="black"/>
<path d="M103.541 45.7188C103.541 45.7188 103.608 45.5815 103.676 45.5815H107.901C107.901 45.5815 108.036 45.6501 108.036 45.7188V46.1993C108.036 46.1993 107.969 46.3709 107.901 46.3709H106.245V51.7254C106.245 51.7254 106.177 51.897 106.11 51.897H105.501C105.501 51.897 105.332 51.8283 105.332 51.7254V46.3709H103.676C103.676 46.3709 103.541 46.3023 103.541 46.1993V45.6845V45.7188Z" fill="black"/>
<path d="M110.47 50.9359C110.47 50.9359 110.403 50.7643 110.47 50.6957L110.876 50.2838C110.876 50.2838 111.011 50.2495 111.113 50.3181C111.484 50.7643 112.127 51.1075 112.667 51.1075C113.479 51.1075 113.952 50.73 113.952 50.1465C113.952 49.5973 113.377 49.357 112.532 49.0481C111.417 48.6706 110.673 48.2244 110.673 47.229C110.673 46.2336 111.451 45.5128 112.701 45.5128C113.411 45.5128 114.087 45.7874 114.425 46.2336C114.493 46.3023 114.493 46.4052 114.425 46.5082L114.087 46.8858C114.087 46.8858 113.884 46.9544 113.783 46.8858C113.513 46.5768 113.039 46.4052 112.634 46.4052C111.924 46.4052 111.518 46.7485 111.518 47.229C111.518 47.7782 112.16 48.0528 112.938 48.3273C113.918 48.6706 114.865 49.0825 114.865 50.1465C114.865 51.2792 113.986 51.9999 112.667 51.9999C111.755 51.9999 110.842 51.5537 110.403 50.9359H110.47Z" fill="black"/>
<path d="M68.7228 48.3617H0.135215C0.0605376 48.3617 0 48.4232 0 48.499V49.0825C0 49.1583 0.0605376 49.2198 0.135215 49.2198H68.7228C68.7975 49.2198 68.858 49.1583 68.858 49.0825V48.499C68.858 48.4232 68.7975 48.3617 68.7228 48.3617Z" fill="#E74625"/>
</svg>
